<?xml version="1.0" standalone="no"?>
<!DOCTYPE svg PUBLIC "-//W3C//DTD SVG 20010904//EN"
 "http://www.w3.org/TR/2001/REC-SVG-20010904/DTD/svg10.dtd">
<svg version="1.0" xmlns="http://www.w3.org/2000/svg"
 width="700.000000pt" height="700.000000pt" viewBox="0 0 700.000000 700.000000"
 preserveAspectRatio="xMidYMid meet">
<metadata>
Created by potrace 1.14, written by Peter Selinger 2001-2017
</metadata>
<g transform="translate(0.000000,700.000000) scale(0.100000,-0.100000)"
fill="#000000" stroke="none">
<path d="M3327 6414 c-1 -1 -38 -5 -82 -8 -44 -4 -91 -8 -105 -10 -14 -3 -47
-7 -73 -11 -414 -52 -901 -250 -1272 -517 -135 -98 -211 -164 -356 -308 -159
-159 -244 -261 -350 -420 -38 -58 -74 -111 -81 -119 -25 -30 -188 -363 -226
-461 -39 -101 -88 -247 -97 -286 -2 -11 -11 -45 -19 -77 -48 -176 -78 -429
-80 -667 -2 -148 5 -293 18 -390 14 -100 28 -187 36 -220 5 -19 11 -46 14 -60
64 -323 243 -729 454 -1030 229 -328 540 -618 881 -824 160 -98 519 -265 598
-279 10 -2 56 -16 103 -30 88 -28 288 -71 375 -82 28 -4 61 -8 75 -11 136 -24
552 -23 725 1 169 23 203 30 333 61 355 85 748 271 1042 492 25 19 58 43 74
55 85 63 255 224 369 351 354 389 642 1005 702 1501 4 33 9 71 11 85 18 134
23 429 10 590 -11 133 -12 147 -25 215 -6 33 -13 74 -16 90 -16 97 -32 164
-73 305 -19 69 -38 128 -41 132 -4 4 -112 -97 -240 -226 l-233 -233 13 -74 c7
-41 13 -76 14 -79 1 -3 5 -39 9 -80 4 -41 10 -88 12 -105 5 -38 5 -350 0 -390
-2 -16 -7 -57 -11 -90 -3 -33 -9 -73 -11 -90 -3 -16 -7 -41 -9 -55 -7 -53 -55
-238 -80 -315 -91 -272 -248 -545 -440 -764 -67 -77 -217 -224 -285 -279 -36
-30 -74 -61 -85 -70 -38 -32 -123 -90 -201 -137 -306 -186 -612 -284 -999
-321 -51 -4 -367 -4 -420 1 -307 29 -576 104 -840 237 -90 45 -310 182 -340
211 -6 7 -27 23 -45 37 -79 61 -257 230 -335 320 -249 287 -436 659 -504 1000
-21 103 -22 107 -36 218 -15 116 -21 413 -11 507 2 17 7 59 10 95 4 36 9 72
11 80 2 8 6 31 9 50 22 149 87 365 152 507 13 30 24 56 24 58 0 11 118 217
163 285 79 119 193 256 307 371 151 151 271 244 495 385 152 95 443 205 660
249 60 12 207 34 270 40 61 5 392 7 420 1 11 -2 52 -7 90 -10 39 -4 86 -11
105 -16 19 -5 51 -11 70 -14 185 -28 510 -155 728 -285 29 -17 58 -31 65 -31
11 0 408 402 415 419 3 10 -126 94 -233 153 -65 36 -188 97 -295 145 -144 65
-453 159 -590 179 -19 3 -42 7 -50 9 -8 3 -37 7 -65 10 -27 3 -61 8 -75 10
-69 13 -522 29 -533 19z"/>
<path d="M4548 4436 l-1457 -1461 -411 410 c-226 226 -413 412 -416 415 -2 2
-96 -87 -208 -199 l-203 -203 620 -620 620 -620 1658 1663 c913 915 1659 1667
1659 1670 0 5 -395 402 -403 405 -1 0 -658 -657 -1459 -1460z"/>
</g>
</svg>
